# xmcd
#
# Track frame offsets:
#	150
#	15718
#	35847
#	54064
#	68100
#	85769
#	104623
#	118064
#	132422
#	148494
#	174869
#
# Disc length: 2831 seconds
#
# Revision: 1
# Processed by: cddbd v1.5.1PL0 Copyright (c) Steve Scherf et al.
# Submitted via: audiograbber 1.82.02
#
DISCID=9a0b0d0b
DTITLE=Shooter Jennings - Put The O Back In Country
DYEAR=2005
DGENRE=Country
TTITLE0=Shooter Jennings - Put The O Back In Country
TTITLE1=Shooter Jennings - 4th Of July Feat. George Jones
TTITLE2=Shooter Jennings - Lonesome Blues
TTITLE3=Shooter Jennings - Solid Country Gold
TTITLE4=Shooter Jennings - Busted Baylor County
TTITLE5=Shooter Jennings - Sweet Savannah
TTITLE6=Shooter Jennings - Steady At The Wheel
TTITLE7=Shooter Jennings - Manifesto No. 1
TTITLE8=Shooter Jennings - The Letter
TTITLE9=Shooter Jennings - Southern Comfort
TTITLE10=Shooter Jennings - Daddy's Farm
EXTD=
EXTT0=
EXTT1=
EXTT2=
EXTT3=
EXTT4=
EXTT5=
EXTT6=
EXTT7=
EXTT8=
EXTT9=
EXTT10=
PLAYORDER=
